<svg width="309" height="29" viewBox="0 0 309 29" fill="none" xmlns="http://www.w3.org/2000/svg">
<path d="M216.3 28.84C221.085 28.4288 278.432 29.354 306.508 28.84L309 3.65558C304.847 3.31294 294.846 2.62764 288.068 2.62764C279.595 2.62764 212.811 0.571763 206.332 0.0577921C199.853 -0.456179 110.642 2.62766 101.173 2.62766L24.421 2.62767C19.2377 2.62767 5.98065 4.68355 -2.03595e-06 5.7115C2.15967 11.0225 6.5787 21.8502 6.97742 22.6726C7.37613 23.4949 5.81448 27.1268 4.98383 28.84L51.8322 28.84C59.3081 28.84 154.998 26.7841 173.937 26.7841L186.895 26.7841C192.377 26.7841 210.319 29.354 216.3 28.84Z" fill="#50FFB1"/>
</svg>
